<mxfile host="Electron" modified="2025-06-12T05:32:20.400Z" agent="Mozilla/5.0 (Windows NT 10.0; Win64; x64) AppleWebKit/537.36 (KHTML, like Gecko) draw.io/22.0.3 Chrome/114.0.5735.289 Electron/25.8.4 Safari/537.36" etag="mtmqUtBFjQWrqdd3upcj" version="22.0.3" type="device">
  <diagram name="페이지-1" id="xeyZV4D3yQJQe0Ug7TQ1">
    <mxGraphModel dx="2060" dy="1182" grid="1" gridSize="10" guides="1" tooltips="1" connect="1" arrows="1" fold="1" page="1" pageScale="1" pageWidth="1169" pageHeight="827" math="0" shadow="0">
      <root>
        <mxCell id="0" />
        <mxCell id="1" parent="0" />
        <mxCell id="g2oS5hd8f5dG7y2Dh8pd-1" value="사진 업로드" style="text;html=1;strokeColor=none;fillColor=none;align=center;verticalAlign=middle;whiteSpace=wrap;rounded=0;" vertex="1" parent="1">
          <mxGeometry x="100" y="110" width="170" height="30" as="geometry" />
        </mxCell>
        <mxCell id="g2oS5hd8f5dG7y2Dh8pd-2" value="수동 or 자동" style="text;html=1;strokeColor=none;fillColor=none;align=center;verticalAlign=middle;whiteSpace=wrap;rounded=0;" vertex="1" parent="1">
          <mxGeometry x="100" y="150" width="170" height="30" as="geometry" />
        </mxCell>
        <mxCell id="g2oS5hd8f5dG7y2Dh8pd-4" value="" style="endArrow=none;html=1;rounded=0;" edge="1" parent="1">
          <mxGeometry width="50" height="50" relative="1" as="geometry">
            <mxPoint x="316" y="430" as="sourcePoint" />
            <mxPoint x="316" y="100" as="targetPoint" />
          </mxGeometry>
        </mxCell>
        <mxCell id="g2oS5hd8f5dG7y2Dh8pd-6" value="Local" style="shape=delay;whiteSpace=wrap;html=1;" vertex="1" parent="1">
          <mxGeometry x="145" y="210" width="80" height="40" as="geometry" />
        </mxCell>
        <mxCell id="g2oS5hd8f5dG7y2Dh8pd-7" value="Cloud Drive" style="shape=delay;whiteSpace=wrap;html=1;" vertex="1" parent="1">
          <mxGeometry x="145" y="320" width="80" height="40" as="geometry" />
        </mxCell>
        <mxCell id="g2oS5hd8f5dG7y2Dh8pd-8" value="" style="shape=image;html=1;verticalLabelPosition=bottom;verticalAlign=top;imageAspect=1;aspect=fixed;image=img/clipart/Gear_128x128.png" vertex="1" parent="1">
          <mxGeometry x="410" y="190" width="52" height="61" as="geometry" />
        </mxCell>
        <mxCell id="g2oS5hd8f5dG7y2Dh8pd-9" value="Gemini" style="text;html=1;strokeColor=none;fillColor=none;align=center;verticalAlign=middle;whiteSpace=wrap;rounded=0;" vertex="1" parent="1">
          <mxGeometry x="351" y="160" width="170" height="30" as="geometry" />
        </mxCell>
        <mxCell id="g2oS5hd8f5dG7y2Dh8pd-10" value="" style="shape=image;html=1;verticalLabelPosition=bottom;verticalAlign=top;imageAspect=1;aspect=fixed;image=img/clipart/Gear_128x128.png" vertex="1" parent="1">
          <mxGeometry x="410" y="320" width="52" height="61" as="geometry" />
        </mxCell>
        <mxCell id="g2oS5hd8f5dG7y2Dh8pd-11" value="Python" style="text;html=1;strokeColor=none;fillColor=none;align=center;verticalAlign=middle;whiteSpace=wrap;rounded=0;" vertex="1" parent="1">
          <mxGeometry x="351" y="290" width="170" height="30" as="geometry" />
        </mxCell>
        <mxCell id="g2oS5hd8f5dG7y2Dh8pd-12" value="" style="strokeWidth=2;html=1;shape=mxgraph.flowchart.annotation_2;align=left;labelPosition=right;pointerEvents=1;" vertex="1" parent="1">
          <mxGeometry x="490" y="300.5" width="50" height="100" as="geometry" />
        </mxCell>
        <mxCell id="g2oS5hd8f5dG7y2Dh8pd-13" value="" style="endArrow=none;html=1;rounded=0;" edge="1" parent="1">
          <mxGeometry width="50" height="50" relative="1" as="geometry">
            <mxPoint x="480" y="220" as="sourcePoint" />
            <mxPoint x="580" y="220" as="targetPoint" />
          </mxGeometry>
        </mxCell>
        <mxCell id="g2oS5hd8f5dG7y2Dh8pd-14" value="" style="strokeWidth=2;html=1;shape=mxgraph.flowchart.database;whiteSpace=wrap;" vertex="1" parent="1">
          <mxGeometry x="885" y="260" width="60" height="60" as="geometry" />
        </mxCell>
        <mxCell id="g2oS5hd8f5dG7y2Dh8pd-15" value="Vector Database (PGVector)" style="text;html=1;strokeColor=none;fillColor=none;align=center;verticalAlign=middle;whiteSpace=wrap;rounded=0;" vertex="1" parent="1">
          <mxGeometry x="830" y="210" width="170" height="30" as="geometry" />
        </mxCell>
        <mxCell id="g2oS5hd8f5dG7y2Dh8pd-16" value="" style="endArrow=none;html=1;rounded=0;" edge="1" parent="1">
          <mxGeometry width="50" height="50" relative="1" as="geometry">
            <mxPoint x="700" y="440" as="sourcePoint" />
            <mxPoint x="700" y="110" as="targetPoint" />
          </mxGeometry>
        </mxCell>
        <mxCell id="g2oS5hd8f5dG7y2Dh8pd-17" value="Caption" style="text;html=1;strokeColor=none;fillColor=none;align=center;verticalAlign=middle;whiteSpace=wrap;rounded=0;" vertex="1" parent="1">
          <mxGeometry x="600" y="205.5" width="60" height="30" as="geometry" />
        </mxCell>
        <mxCell id="g2oS5hd8f5dG7y2Dh8pd-18" value="" style="endArrow=classic;html=1;rounded=0;" edge="1" parent="1">
          <mxGeometry width="50" height="50" relative="1" as="geometry">
            <mxPoint x="680" y="220" as="sourcePoint" />
            <mxPoint x="870" y="280" as="targetPoint" />
          </mxGeometry>
        </mxCell>
        <mxCell id="g2oS5hd8f5dG7y2Dh8pd-19" value="임베딩" style="text;html=1;strokeColor=none;fillColor=none;align=center;verticalAlign=middle;whiteSpace=wrap;rounded=0;" vertex="1" parent="1">
          <mxGeometry x="740" y="205.5" width="60" height="30" as="geometry" />
        </mxCell>
        <mxCell id="g2oS5hd8f5dG7y2Dh8pd-20" value="임베딩 모델 (구글, OpenAI)" style="text;html=1;strokeColor=none;fillColor=none;align=center;verticalAlign=middle;whiteSpace=wrap;rounded=0;" vertex="1" parent="1">
          <mxGeometry x="700" y="170" width="170" height="30" as="geometry" />
        </mxCell>
        <mxCell id="g2oS5hd8f5dG7y2Dh8pd-21" value="Metadata" style="text;html=1;strokeColor=none;fillColor=none;align=center;verticalAlign=middle;whiteSpace=wrap;rounded=0;" vertex="1" parent="1">
          <mxGeometry x="580" y="260" width="60" height="30" as="geometry" />
        </mxCell>
        <mxCell id="g2oS5hd8f5dG7y2Dh8pd-22" value="촬영일&lt;br&gt;촬영장소&lt;br&gt;파일명, 폴더&lt;br&gt;저장 드라이브&lt;br&gt;비고" style="text;html=1;strokeColor=none;fillColor=none;align=center;verticalAlign=middle;whiteSpace=wrap;rounded=0;" vertex="1" parent="1">
          <mxGeometry x="555" y="295.5" width="110" height="110" as="geometry" />
        </mxCell>
        <mxCell id="g2oS5hd8f5dG7y2Dh8pd-23" value="EXIP 정보 활용" style="text;html=1;strokeColor=none;fillColor=none;align=center;verticalAlign=middle;whiteSpace=wrap;rounded=0;" vertex="1" parent="1">
          <mxGeometry x="565" y="414" width="90" height="30" as="geometry" />
        </mxCell>
        <mxCell id="g2oS5hd8f5dG7y2Dh8pd-24" value="" style="endArrow=classic;html=1;rounded=0;" edge="1" parent="1">
          <mxGeometry width="50" height="50" relative="1" as="geometry">
            <mxPoint x="675" y="356" as="sourcePoint" />
            <mxPoint x="870" y="300.5" as="targetPoint" />
          </mxGeometry>
        </mxCell>
        <mxCell id="g2oS5hd8f5dG7y2Dh8pd-25" value="메타데이터 형태" style="text;html=1;strokeColor=none;fillColor=none;align=center;verticalAlign=middle;whiteSpace=wrap;rounded=0;" vertex="1" parent="1">
          <mxGeometry x="715" y="290" width="110" height="30" as="geometry" />
        </mxCell>
        <mxCell id="g2oS5hd8f5dG7y2Dh8pd-26" value="" style="endArrow=classic;html=1;rounded=0;" edge="1" parent="1">
          <mxGeometry width="50" height="50" relative="1" as="geometry">
            <mxPoint x="240" y="235.5" as="sourcePoint" />
            <mxPoint x="390" y="340" as="targetPoint" />
          </mxGeometry>
        </mxCell>
        <mxCell id="g2oS5hd8f5dG7y2Dh8pd-27" value="" style="endArrow=classic;html=1;rounded=0;" edge="1" parent="1">
          <mxGeometry width="50" height="50" relative="1" as="geometry">
            <mxPoint x="240" y="224.5" as="sourcePoint" />
            <mxPoint x="390" y="224.5" as="targetPoint" />
          </mxGeometry>
        </mxCell>
        <mxCell id="g2oS5hd8f5dG7y2Dh8pd-28" value="Python" style="text;html=1;strokeColor=none;fillColor=none;align=center;verticalAlign=middle;whiteSpace=wrap;rounded=0;" vertex="1" parent="1">
          <mxGeometry x="351" y="260" width="170" height="30" as="geometry" />
        </mxCell>
        <mxCell id="g2oS5hd8f5dG7y2Dh8pd-29" value="" style="endArrow=classic;html=1;rounded=0;" edge="1" parent="1">
          <mxGeometry width="50" height="50" relative="1" as="geometry">
            <mxPoint x="240" y="350" as="sourcePoint" />
            <mxPoint x="390" y="350" as="targetPoint" />
          </mxGeometry>
        </mxCell>
        <mxCell id="g2oS5hd8f5dG7y2Dh8pd-30" value="" style="endArrow=classic;html=1;rounded=0;" edge="1" parent="1">
          <mxGeometry width="50" height="50" relative="1" as="geometry">
            <mxPoint x="240" y="339.5" as="sourcePoint" />
            <mxPoint x="390" y="240" as="targetPoint" />
          </mxGeometry>
        </mxCell>
        <mxCell id="g2oS5hd8f5dG7y2Dh8pd-31" value="" style="shape=actor;whiteSpace=wrap;html=1;" vertex="1" parent="1">
          <mxGeometry x="170" y="570" width="91.67" height="100" as="geometry" />
        </mxCell>
        <mxCell id="g2oS5hd8f5dG7y2Dh8pd-32" value="" style="shape=image;html=1;verticalLabelPosition=bottom;verticalAlign=top;imageAspect=1;aspect=fixed;image=img/clipart/Gear_128x128.png" vertex="1" parent="1">
          <mxGeometry x="410" y="604.5" width="52" height="61" as="geometry" />
        </mxCell>
        <mxCell id="g2oS5hd8f5dG7y2Dh8pd-33" value="Gemini" style="text;html=1;strokeColor=none;fillColor=none;align=center;verticalAlign=middle;whiteSpace=wrap;rounded=0;" vertex="1" parent="1">
          <mxGeometry x="351" y="574.5" width="170" height="30" as="geometry" />
        </mxCell>
        <mxCell id="g2oS5hd8f5dG7y2Dh8pd-34" value="" style="strokeWidth=2;html=1;shape=mxgraph.flowchart.database;whiteSpace=wrap;" vertex="1" parent="1">
          <mxGeometry x="525" y="740" width="60" height="60" as="geometry" />
        </mxCell>
        <mxCell id="g2oS5hd8f5dG7y2Dh8pd-35" value="Vector Database (PGVector)" style="text;html=1;strokeColor=none;fillColor=none;align=center;verticalAlign=middle;whiteSpace=wrap;rounded=0;" vertex="1" parent="1">
          <mxGeometry x="470" y="710" width="170" height="30" as="geometry" />
        </mxCell>
        <mxCell id="g2oS5hd8f5dG7y2Dh8pd-36" value="" style="endArrow=classic;html=1;rounded=0;" edge="1" parent="1">
          <mxGeometry width="50" height="50" relative="1" as="geometry">
            <mxPoint x="280" y="634.5" as="sourcePoint" />
            <mxPoint x="390" y="634.5" as="targetPoint" />
          </mxGeometry>
        </mxCell>
        <mxCell id="g2oS5hd8f5dG7y2Dh8pd-37" value="" style="endArrow=classic;html=1;rounded=0;" edge="1" parent="1">
          <mxGeometry width="50" height="50" relative="1" as="geometry">
            <mxPoint x="490" y="634.5" as="sourcePoint" />
            <mxPoint x="720" y="634" as="targetPoint" />
          </mxGeometry>
        </mxCell>
        <mxCell id="g2oS5hd8f5dG7y2Dh8pd-38" value="" style="endArrow=classic;startArrow=classic;html=1;rounded=0;" edge="1" parent="1">
          <mxGeometry width="50" height="50" relative="1" as="geometry">
            <mxPoint x="505" y="700" as="sourcePoint" />
            <mxPoint x="470" y="670" as="targetPoint" />
          </mxGeometry>
        </mxCell>
        <mxCell id="g2oS5hd8f5dG7y2Dh8pd-39" value="바닷가에서 찍은 사진" style="ellipse;whiteSpace=wrap;html=1;align=center;newEdgeStyle={&quot;edgeStyle&quot;:&quot;entityRelationEdgeStyle&quot;,&quot;startArrow&quot;:&quot;none&quot;,&quot;endArrow&quot;:&quot;none&quot;,&quot;segment&quot;:10,&quot;curved&quot;:1,&quot;sourcePerimeterSpacing&quot;:0,&quot;targetPerimeterSpacing&quot;:0};treeFolding=1;treeMoving=1;" vertex="1" collapsed="1" parent="1">
          <mxGeometry x="270" y="564.5" width="120" height="50" as="geometry" />
        </mxCell>
        <mxCell id="g2oS5hd8f5dG7y2Dh8pd-40" value="" style="image;html=1;image=img/lib/clip_art/general/Full_Folder_128x128.png" vertex="1" parent="1">
          <mxGeometry x="760" y="605" width="80" height="80" as="geometry" />
        </mxCell>
        <mxCell id="g2oS5hd8f5dG7y2Dh8pd-41" value="원하는 사진" style="text;html=1;strokeColor=none;fillColor=none;align=center;verticalAlign=middle;whiteSpace=wrap;rounded=0;" vertex="1" parent="1">
          <mxGeometry x="715" y="564.5" width="170" height="30" as="geometry" />
        </mxCell>
      </root>
    </mxGraphModel>
  </diagram>
</mxfile>
